<?xml version="1.0" encoding="UTF-8"?>
<svg width="500px" height="500px" viewBox="0 0 500 500" version="1.1" xmlns="http://www.w3.org/2000/svg" xmlns:xlink="http://www.w3.org/1999/xlink">
    <title>Artboard</title>
    <g id="Artboard" stroke="none" stroke-width="1" fill="none" fill-rule="evenodd">
        <path d="M359.682733,61.0239341 C368.312332,66.0320396 376.47155,71.5407414 384.144832,77.4920863 L384.144832,77.4920863 L360.130862,108.22846 C353.870618,103.377971 347.217066,98.8859549 340.182672,94.7990303 L340.182672,94.7990303 Z" id="Path" stroke="#2F358F" fill="#FFFFFF"></path>
        <path d="M384.934054,78.1071027 C392.762124,84.2361483 400.079457,90.8278192 406.869335,97.8197482 L406.869335,97.8197482 L378.807208,124.918296 C373.267229,119.219166 367.30038,113.844188 360.92008,108.843482 L360.92008,108.843482 Z" id="Path" stroke="#2F358F" fill="#FFFFFF"></path>
        <path d="M407.564296,98.5386999 C414.435274,105.679755 420.759738,113.232871 426.520091,121.132367 L426.520091,121.132367 L394.960551,144.06231 C390.25966,137.622485 385.102188,131.463245 379.502276,125.63736 L379.502276,125.63736 Z" id="Path" stroke="#2F358F" fill="#FFFFFF"></path>
        <path d="M427.107531,121.941863 C435.900073,134.116893 443.359152,147.104546 449.420938,160.66649 L449.420938,160.66649 L413.789652,176.529705 C408.828475,165.445093 402.730689,154.828168 395.548015,144.87184 L395.548015,144.87184 Z" id="Path" stroke="#2F358F" fill="#FFFFFF"></path>
        <path d="M449.826891,161.580311 C453.805291,170.591225 457.168536,179.852361 459.898007,189.29421 L459.898007,189.29421 L422.408648,200.044118 C420.179057,192.345696 417.436485,184.793767 414.195902,177.444182 L414.195902,177.444182 Z" id="Path" stroke="#2F358F" fill="#FFFFFF"></path>
        <path d="M460.173197,190.254322 C462.860853,199.712358 464.913564,209.348906 466.312679,219.094372 L466.312679,219.094372 L427.690455,224.523098 C426.545648,216.576547 424.871806,208.718369 422.683911,201.00449 L422.683911,201.00449 Z" id="Path" stroke="#2F358F" fill="#FFFFFF"></path>
        <path d="M466.452573,220.084838 C467.803165,229.80712 468.503611,239.635298 468.535432,249.500428 L468.535432,249.500428 L429.528649,249.500428 C429.498737,241.456102 428.927678,233.441952 427.830306,225.513311 L427.830306,225.513311 Z" id="Path" stroke="#2F358F" fill="#FFFFFF"></path>
        <path d="M468.49944,250.5 C468.477093,260.477505 467.786026,270.297945 466.468651,279.918875 L466.468651,279.918875 L427.843186,274.490354 C428.913711,266.643579 429.477135,258.635426 429.499318,250.5 L429.499318,250.5 Z" id="Path" stroke="#2F358F" fill="#FFFFFF"></path>
        <path d="M427.70517,275.481348 L466.330643,280.90987 C464.936768,290.7537 462.886881,300.386532 460.226631,309.762703 L460.226631,309.762703 L422.727537,299.009462 C424.893139,291.362135 426.564582,283.507202 427.70517,275.481348 L427.70517,275.481348 Z" id="Path" stroke="#2F358F" fill="#FFFFFF"></path>
        <path d="M422.452343,299.970941 L459.951481,310.724033 C457.202636,320.245002 453.823677,329.498707 449.86269,338.437067 L449.86269,338.437067 L414.225006,322.570675 C417.451612,315.279672 420.206935,307.733549 422.452343,299.970941 L422.452343,299.970941 Z" id="Path" stroke="#2F358F" fill="#FFFFFF"></path>
        <path d="M413.817665,323.484198 L449.455365,339.350553 C443.307751,353.052633 435.789653,366.00621 427.075558,378.036843 L427.075558,378.036843 L395.521968,355.110852 C402.640935,345.272041 408.786568,334.68274 413.817665,323.484198 L413.817665,323.484198 Z" id="Path" stroke="#2F358F" fill="#FFFFFF"></path>
        <path d="M394.933132,355.919913 L426.487143,378.845319 C420.672662,386.796172 414.333906,394.339395 407.52176,401.424111 L407.52176,401.424111 L379.467387,374.332328 C385.01962,368.552234 390.188496,362.401133 394.933132,355.919913 L394.933132,355.919913 Z" id="Path" stroke="#2F358F" fill="#FFFFFF"></path>
        <path d="M378.773312,375.050899 L406.827874,402.142488 C399.980802,409.199085 392.661662,415.795059 384.921399,421.879461 L384.921399,421.879461 L360.908871,391.145997 C367.218384,386.181289 373.186844,380.80261 378.773312,375.050899 L378.773312,375.050899 Z" id="Path" stroke="#2F358F" fill="#FFFFFF"></path>
        <path d="M360.121248,391.762218 L384.133577,422.495846 C376.38913,428.526633 368.227902,434.047327 359.700359,439.007449 L359.700359,439.007449 L340.197027,405.22655 C347.148604,401.178515 353.80353,396.67689 360.121248,391.762218 L360.121248,391.762218 Z" id="Path" stroke="#2F358F" fill="#FFFFFF"></path>
        <path d="M339.316646,405.70097 L358.816707,439.476066 C350.164761,444.445465 341.314477,448.757204 332.32382,452.426789 L332.32382,452.426789 L317.712324,416.261894 C325.043093,413.265609 332.260069,409.749471 339.316646,405.70097 L339.316646,405.70097 Z" id="Path" stroke="#2F358F" fill="#FFFFFF"></path>
        <path d="M316.78509,416.637866 L331.396589,452.802767 C322.174645,456.517552 312.807424,459.558713 303.357297,461.942955 L303.357297,461.942955 L293.920329,424.091166 C301.62591,422.142969 309.264203,419.663015 316.78509,416.637866 L316.78509,416.637866 Z" id="Path" stroke="#2F358F" fill="#FFFFFF"></path>
        <path d="M292.950067,424.333581 L302.387186,462.185333 C292.767362,464.565247 283.063939,466.265835 273.342598,467.3047 L273.342598,467.3047 L269.264455,428.508364 C277.191952,427.657186 285.104747,426.270304 292.950067,424.333581 L292.950067,424.333581 Z" id="Path" stroke="#2F358F" fill="#FFFFFF"></path>
        <path d="M231.732316,428.581147 C243.81246,429.826947 256.05588,429.854572 268.26965,428.612358 L268.26965,428.612358 L272.347834,467.40869 C257.407678,468.935739 242.430501,468.901665 227.65462,467.370354 L227.65462,467.370354 Z" id="Path" stroke="#2F358F" fill="#FFFFFF"></path>
        <path d="M207.058739,424.28821 C214.840564,426.206538 222.752012,427.607366 230.737231,428.475731 L230.737231,428.475731 L226.660252,467.265009 C216.867371,466.204947 207.16537,464.487035 197.623753,462.129901 L197.623753,462.129901 Z" id="Path" stroke="#2F358F" fill="#FFFFFF"></path>
        <path d="M183.218417,416.622899 C190.672736,419.604743 198.315039,422.084242 206.089401,424.046409 L206.089401,424.046409 L196.654677,461.888167 C187.119949,459.486727 177.748098,456.446153 168.60872,452.785089 L168.60872,452.785089 Z" id="Path" stroke="#2F358F" fill="#FFFFFF"></path>
        <path d="M160.668378,405.726191 C167.649867,409.722417 174.875853,413.234939 182.290942,416.248907 L182.290942,416.248907 L167.681003,452.411008 C158.585965,448.719514 149.72429,444.41203 141.164927,439.507022 L141.164927,439.507022 Z" id="Path" stroke="#2F358F" fill="#FFFFFF"></path>
        <path d="M139.869138,391.77154 C146.129382,396.622029 152.782934,401.114045 159.817328,405.20097 L159.817328,405.20097 L140.317267,438.976066 C131.687668,433.96796 123.52845,428.459259 115.855168,422.507914 L115.855168,422.507914 Z" id="Path" stroke="#2F358F" fill="#FFFFFF"></path>
        <path d="M121.192792,375.081704 C126.732771,380.780834 132.69962,386.155812 139.07992,391.156518 L139.07992,391.156518 L115.065946,421.892897 C107.237876,415.763852 99.9205428,409.172181 93.1306654,402.180252 L93.1306654,402.180252 Z" id="Path" stroke="#2F358F" fill="#FFFFFF"></path>
        <path d="M105.039449,355.93769 C109.74034,362.377515 114.897812,368.536755 120.497724,374.36264 L120.497724,374.36264 L92.4357044,401.4613 C85.564726,394.320245 79.2402621,386.767129 73.4799086,378.867633 L73.4799086,378.867633 Z" id="Path" stroke="#2F358F" fill="#FFFFFF"></path>
        <path d="M86.2103478,323.470295 C91.1715252,334.554907 97.2693113,345.171832 104.451985,355.12816 L104.451985,355.12816 L72.8924686,378.058137 C64.0999268,365.883107 56.6408481,352.895454 50.5790618,339.33351 L50.5790618,339.33351 Z" id="Path" stroke="#2F358F" fill="#FFFFFF"></path>
        <path d="M77.5913522,299.955882 C79.8209435,307.654304 82.5635152,315.206233 85.804098,322.555818 L85.804098,322.555818 L50.1731089,338.419689 C46.1947092,329.408775 42.8314641,320.147639 40.1019934,310.70579 L40.1019934,310.70579 Z" id="Path" stroke="#2F358F" fill="#FFFFFF"></path>
        <path d="M72.3095452,275.476902 C73.4543521,283.423453 75.1281943,291.281631 77.3160891,298.99551 L77.3160891,298.99551 L39.8268035,309.745678 C37.1391472,300.287642 35.0864363,290.651094 33.687321,280.905628 L33.687321,280.905628 Z" id="Path" stroke="#2F358F" fill="#FFFFFF"></path>
        <path d="M70.4713511,250.499572 C70.501263,258.543898 71.0723222,266.558048 72.1696938,274.486689 L72.1696938,274.486689 L33.5474267,279.915162 C32.1968355,270.19288 31.4963886,260.364702 31.464568,250.499572 L31.464568,250.499572 Z" id="Path" stroke="#2F358F" fill="#FFFFFF"></path>
        <path d="M33.5313486,220.081125 L72.1568138,225.509646 C71.086289,233.356421 70.5228651,241.364574 70.5006816,249.5 L70.5006816,249.5 L31.5005599,249.5 C31.5229068,239.522495 32.2139737,229.702055 33.5313486,220.081125 L33.5313486,220.081125 Z" id="Path" stroke="#2F358F" fill="#FFFFFF"></path>
        <path d="M39.7733687,190.237297 L77.2724627,200.990538 C75.1068605,208.637865 73.4354177,216.492798 72.2948296,224.518652 L72.2948296,224.518652 L33.6693571,219.09013 C35.0632316,209.2463 37.1131193,199.613468 39.7733687,190.237297 L39.7733687,190.237297 Z" id="Path" stroke="#2F358F" fill="#FFFFFF"></path>
        <path d="M50.1373102,161.562933 L85.7749942,177.429325 C82.5483875,184.720328 79.7930649,192.266451 77.5476566,200.029059 L77.5476566,200.029059 L40.0485186,189.275967 C42.7973643,179.754998 46.176323,170.501293 50.1373102,161.562933 L50.1373102,161.562933 Z" id="Path" stroke="#2F358F" fill="#FFFFFF"></path>
        <path d="M72.9244416,121.963157 L104.478032,144.889148 C97.3590654,154.727959 91.2134315,165.31726 86.1823353,176.515802 L86.1823353,176.515802 L50.5446347,160.649447 C56.692249,146.947367 64.2103468,133.99379 72.9244416,121.963157 L72.9244416,121.963157 Z" id="Path" stroke="#2F358F" fill="#FFFFFF"></path>
        <path d="M92.47824,98.5758893 L120.532613,125.667672 C114.98038,131.447766 109.811504,137.598867 105.066868,144.080087 L105.066868,144.080087 L73.5128573,121.154681 C79.3273385,113.203828 85.6660943,105.660605 92.47824,98.5758893 L92.47824,98.5758893 Z" id="Path" stroke="#2F358F" fill="#FFFFFF"></path>
        <path d="M115.078601,78.120539 L139.091129,108.854003 C132.781616,113.818711 126.813156,119.19739 121.226688,124.949101 L121.226688,124.949101 L93.1721264,97.8575119 C100.019198,90.800915 107.338338,84.2049412 115.078601,78.120539 L115.078601,78.120539 Z" id="Path" stroke="#2F358F" fill="#FFFFFF"></path>
        <path d="M140.299641,60.9925506 L159.802973,94.7734501 C152.851396,98.8214848 146.19647,103.32311 139.878752,108.237782 L139.878752,108.237782 L115.866423,77.5041537 C123.61087,71.4733667 131.772098,65.9526731 140.299641,60.9925506 L140.299641,60.9925506 Z" id="Path" stroke="#2F358F" fill="#FFFFFF"></path>
        <path d="M167.67618,47.5732113 L182.287676,83.7381059 C174.956907,86.7343915 167.739931,90.2505287 160.683354,94.2990303 L160.683354,94.2990303 L141.183293,60.5239341 C149.835239,55.5545346 158.685523,51.2427959 167.67618,47.5732113 L167.67618,47.5732113 Z" id="Path" stroke="#2F358F" fill="#FFFFFF"></path>
        <path d="M196.642703,38.0570452 L206.079671,75.9088336 C198.37409,77.8570308 190.735797,80.3369851 183.21491,83.362134 L183.21491,83.362134 L168.603411,47.1972325 C177.825355,43.4824485 187.192576,40.4412871 196.642703,38.0570452 L196.642703,38.0570452 Z" id="Path" stroke="#2F358F" fill="#FFFFFF"></path>
        <path d="M226.657402,32.6953 L230.735545,71.4916358 C222.808048,72.3428139 214.895253,73.7296959 207.049933,75.6664191 L207.049933,75.6664191 L197.612814,37.8146672 C207.232638,35.4347528 216.936061,33.7341646 226.657402,32.6953 L226.657402,32.6953 Z" id="Path" stroke="#2F358F" fill="#FFFFFF"></path>
        <path d="M227.652166,32.5913102 C242.592322,31.0642606 257.569499,31.0983353 272.34538,32.6296463 L272.34538,32.6296463 L268.267684,71.4188529 C256.18754,70.1730526 243.94412,70.1454278 231.73035,71.3876416 L231.73035,71.3876416 Z" id="Path" stroke="#2F358F" fill="#FFFFFF"></path>
        <path d="M273.339748,32.7349913 C283.132629,33.7950534 292.83463,35.5129654 302.376247,37.8700989 L302.376247,37.8700989 L292.941261,75.7117903 C285.159436,73.7934618 277.247988,72.3926342 269.262769,71.5242688 L269.262769,71.5242688 Z" id="Path" stroke="#2F358F" fill="#FFFFFF"></path>
        <path d="M303.345323,38.1118334 C312.880051,40.513273 322.251902,43.5538472 331.39128,47.2149107 L331.39128,47.2149107 L316.781583,83.3771013 C309.327264,80.3952574 301.684961,77.9157582 293.910599,75.9535912 L293.910599,75.9535912 Z" id="Path" stroke="#2F358F" fill="#FFFFFF"></path>
        <path d="M332.318997,47.588992 C341.414035,51.2804863 350.27571,55.5879704 358.835073,60.4929778 L358.835073,60.4929778 L339.331622,94.2738087 C332.350133,90.2775831 325.124147,86.7650611 317.709058,83.7510928 L317.709058,83.7510928 Z" id="Path" stroke="#2F358F" fill="#FFFFFF"></path>
        <path d="M250,71.5 C257.727462,71.5 263.894187,71.8109511 268.499963,72.4352295 L268.499963,72.4352295 L268.497587,100.5 L231.5,100.5 L231.5,72.4352345 C236.10578,71.8109527 242.272518,71.5 250,71.5 Z" id="Path" stroke="#2F358F" fill="#FFFFFF"></path>
        <rect id="Rectangle-Copy" stroke="#2F358F" fill="#FFFFFF" x="231.5" y="159.5" width="37" height="28"></rect>
        <rect id="Rectangle-Copy-3" stroke="#2F358F" fill="#FFFFFF" x="231.5" y="101.5" width="37" height="28"></rect>
        <rect id="Rectangle-Copy-2" stroke="#2F358F" fill="#FFFFFF" x="231.5" y="188.5" width="37" height="28"></rect>
        <rect id="Rectangle-Copy-4" stroke="#2F358F" fill="#FFFFFF" x="231.5" y="130.5" width="37" height="28"></rect>
        <path d="M392.028166,153.5 C399.755628,153.5 405.922353,153.810951 410.528129,154.43523 L410.528129,154.43523 L410.525753,182.5 L373.528166,182.5 L373.528166,154.435235 C378.133946,153.810953 384.300684,153.5 392.028166,153.5 Z" id="Path" stroke="#2F358F" fill="#FFFFFF" transform="translate(392.028166, 168.000000) rotate(60.000000) translate(-392.028166, -168.000000) "></path>
        <rect id="Rectangle-Copy" stroke="#2F358F" fill="#FFFFFF" transform="translate(316.250943, 211.750000) rotate(60.000000) translate(-316.250943, -211.750000) " x="297.750943" y="197.75" width="37" height="28"></rect>
        <rect id="Rectangle-Copy-3" stroke="#2F358F" fill="#FFFFFF" transform="translate(366.480417, 182.750000) rotate(60.000000) translate(-366.480417, -182.750000) " x="347.980417" y="168.75" width="37" height="28"></rect>
        <rect id="Rectangle-Copy-2" stroke="#2F358F" fill="#FFFFFF" transform="translate(291.136207, 226.250000) rotate(60.000000) translate(-291.136207, -226.250000) " x="272.636207" y="212.25" width="37" height="28"></rect>
        <rect id="Rectangle-Copy-4" stroke="#2F358F" fill="#FFFFFF" transform="translate(341.365680, 197.250000) rotate(60.000000) translate(-341.365680, -197.250000) " x="322.86568" y="183.25" width="37" height="28"></rect>
        <path d="M392.028166,317.5 C399.755628,317.5 405.922353,317.810951 410.528129,318.43523 L410.528129,318.43523 L410.525753,346.5 L373.528166,346.5 L373.528166,318.435235 C378.133946,317.810953 384.300684,317.5 392.028166,317.5 Z" id="Path" stroke="#2F358F" fill="#FFFFFF" transform="translate(392.028166, 332.000000) rotate(120.000000) translate(-392.028166, -332.000000) "></path>
        <rect id="Rectangle-Copy" stroke="#2F358F" fill="#FFFFFF" transform="translate(316.250943, 288.250000) rotate(120.000000) translate(-316.250943, -288.250000) " x="297.750943" y="274.25" width="37" height="28"></rect>
        <rect id="Rectangle-Copy-3" stroke="#2F358F" fill="#FFFFFF" transform="translate(366.480417, 317.250000) rotate(120.000000) translate(-366.480417, -317.250000) " x="347.980417" y="303.25" width="37" height="28"></rect>
        <rect id="Rectangle-Copy-2" stroke="#2F358F" fill="#FFFFFF" transform="translate(291.136207, 273.750000) rotate(120.000000) translate(-291.136207, -273.750000) " x="272.636207" y="259.75" width="37" height="28"></rect>
        <rect id="Rectangle-Copy-4" stroke="#2F358F" fill="#FFFFFF" transform="translate(341.365680, 302.750000) rotate(120.000000) translate(-341.365680, -302.750000) " x="322.86568" y="288.75" width="37" height="28"></rect>
        <path d="M250,399.5 C257.727462,399.5 263.894187,399.810951 268.499963,400.43523 L268.499963,400.43523 L268.497587,428.5 L231.5,428.5 L231.5,400.435235 C236.10578,399.810953 242.272518,399.5 250,399.5 Z" id="Path" stroke="#2F358F" fill="#FFFFFF" transform="translate(250.000000, 414.000000) rotate(180.000000) translate(-250.000000, -414.000000) "></path>
        <rect id="Rectangle-Copy" stroke="#2F358F" fill="#FFFFFF" transform="translate(250.000000, 326.500000) rotate(180.000000) translate(-250.000000, -326.500000) " x="231.5" y="312.5" width="37" height="28"></rect>
        <rect id="Rectangle-Copy-3" stroke="#2F358F" fill="#FFFFFF" transform="translate(250.000000, 384.500000) rotate(180.000000) translate(-250.000000, -384.500000) " x="231.5" y="370.5" width="37" height="28"></rect>
        <rect id="Rectangle-Copy-2" stroke="#2F358F" fill="#FFFFFF" transform="translate(250.000000, 297.500000) rotate(180.000000) translate(-250.000000, -297.500000) " x="231.5" y="283.5" width="37" height="28"></rect>
        <rect id="Rectangle-Copy-4" stroke="#2F358F" fill="#FFFFFF" transform="translate(250.000000, 355.500000) rotate(180.000000) translate(-250.000000, -355.500000) " x="231.5" y="341.5" width="37" height="28"></rect>
        <path d="M107.971834,317.5 C115.699296,317.5 121.866021,317.810951 126.471797,318.43523 L126.471797,318.43523 L126.469421,346.5 L89.4718338,346.5 L89.4718338,318.435235 C94.0776139,317.810953 100.244351,317.5 107.971834,317.5 Z" id="Path" stroke="#2F358F" fill="#FFFFFF" transform="translate(107.971834, 332.000000) rotate(240.000000) translate(-107.971834, -332.000000) "></path>
        <rect id="Rectangle-Copy" stroke="#2F358F" fill="#FFFFFF" transform="translate(183.749057, 288.250000) rotate(240.000000) translate(-183.749057, -288.250000) " x="165.249057" y="274.25" width="37" height="28"></rect>
        <rect id="Rectangle-Copy-3" stroke="#2F358F" fill="#FFFFFF" transform="translate(133.519583, 317.250000) rotate(240.000000) translate(-133.519583, -317.250000) " x="115.019583" y="303.25" width="37" height="28"></rect>
        <rect id="Rectangle-Copy-2" stroke="#2F358F" fill="#FFFFFF" transform="translate(208.863793, 273.750000) rotate(240.000000) translate(-208.863793, -273.750000) " x="190.363793" y="259.75" width="37" height="28"></rect>
        <rect id="Rectangle-Copy-4" stroke="#2F358F" fill="#FFFFFF" transform="translate(158.634320, 302.750000) rotate(240.000000) translate(-158.634320, -302.750000) " x="140.13432" y="288.75" width="37" height="28"></rect>
        <path d="M107.971834,153.5 C115.699296,153.5 121.866021,153.810951 126.471797,154.43523 L126.471797,154.43523 L126.469421,182.5 L89.4718338,182.5 L89.4718338,154.435235 C94.0776139,153.810953 100.244351,153.5 107.971834,153.5 Z" id="Path" stroke="#2F358F" fill="#FFFFFF" transform="translate(107.971834, 168.000000) rotate(300.000000) translate(-107.971834, -168.000000) "></path>
        <rect id="Rectangle-Copy" stroke="#2F358F" fill="#FFFFFF" transform="translate(183.749057, 211.750000) rotate(300.000000) translate(-183.749057, -211.750000) " x="165.249057" y="197.75" width="37" height="28"></rect>
        <rect id="Rectangle-Copy-3" stroke="#2F358F" fill="#FFFFFF" transform="translate(133.519583, 182.750000) rotate(300.000000) translate(-133.519583, -182.750000) " x="115.019583" y="168.75" width="37" height="28"></rect>
        <rect id="Rectangle-Copy-2" stroke="#2F358F" fill="#FFFFFF" transform="translate(208.863793, 226.250000) rotate(300.000000) translate(-208.863793, -226.250000) " x="190.363793" y="212.25" width="37" height="28"></rect>
        <rect id="Rectangle-Copy-4" stroke="#2F358F" fill="#FFFFFF" transform="translate(158.634320, 197.250000) rotate(300.000000) translate(-158.634320, -197.250000) " x="140.13432" y="183.25" width="37" height="28"></rect>
        <path d="M250,212.57735 L282.408965,231.288675 L282.408965,268.711325 L250,287.42265 L217.591035,268.711325 L217.591035,231.288675 L250,212.57735 Z" id="Polygon" stroke="#2F358F" fill="#FFFFFF" transform="translate(250.000000, 250.000000) rotate(-330.000000) translate(-250.000000, -250.000000) "></path>
    </g>
</svg>